<svg xmlns="http://www.w3.org/2000/svg" width="14.422" height="14.482" viewBox="0 0 14.422 14.482">
  <g id="icon_attached" transform="translate(-293 -162.601)">
    <path id="Path_362" data-name="Path 362" d="M13.231,1.251A4.622,4.622,0,0,0,10.137,0,4.5,4.5,0,0,0,7.043,1.251a.99.99,0,0,0-.263.724,1.38,1.38,0,0,0,.263.724.99.99,0,0,0,.724.263h0A1.38,1.38,0,0,0,8.492,2.7a2.465,2.465,0,0,1,3.423,0,2.776,2.776,0,0,1,.592,1.646,2.39,2.39,0,0,1-.724,1.711L6.056,11.783a2.465,2.465,0,0,1-3.423,0,2.462,2.462,0,0,1-.658-1.646A2.39,2.39,0,0,1,2.7,8.426L5.134,5.99a.716.716,0,0,1,.987,0,.8.8,0,0,1,0,1.053L4.345,8.821a.99.99,0,0,0-.263.724,1.38,1.38,0,0,0,.263.724,1.091,1.091,0,0,0,1.382,0L7.5,8.492a2.7,2.7,0,0,0,0-3.818A2.636,2.636,0,0,0,5.6,3.884a2.338,2.338,0,0,0-1.843.724L1.317,7.043A4.177,4.177,0,0,0,0,10.137a4.5,4.5,0,0,0,1.251,3.094,4.622,4.622,0,0,0,3.094,1.251,4.5,4.5,0,0,0,3.094-1.251L13.165,7.5A4.221,4.221,0,0,0,14.416,4.41,4.312,4.312,0,0,0,13.231,1.251Z" transform="translate(293 162.601)" fill="#bcbccb"/>
  </g>
</svg>
