<svg xmlns="http://www.w3.org/2000/svg" width="14.482" height="14.482" viewBox="0 0 14.482 14.482">
  <g id="icon_emoji" transform="translate(-364 -162.601)">
    <path id="Path_364" data-name="Path 364" d="M7.241,0a7.241,7.241,0,1,0,7.241,7.241A7.262,7.262,0,0,0,7.241,0ZM4.526,4.827a.905.905,0,1,1-.905.905A.928.928,0,0,1,4.526,4.827Zm6.155,5.25a4.784,4.784,0,0,1-3.44,1.388A4.784,4.784,0,0,1,3.8,10.077a.6.6,0,0,1,.845-.845,3.7,3.7,0,0,0,2.595,1.026A3.7,3.7,0,0,0,9.836,9.232a.6.6,0,0,1,.845.845Zm-.724-3.44a.905.905,0,1,1,.905-.905A.928.928,0,0,1,9.956,6.638Z" transform="translate(364 162.601)" fill="#bcbccb"/>
  </g>
</svg>
