<svg xmlns="http://www.w3.org/2000/svg" width="14.482" height="14.482" viewBox="0 0 14.482 14.482">
  <g id="icon_media" transform="translate(-328 -162.601)">
    <path id="Path_363" data-name="Path 363" d="M13.275,0H1.207A1.21,1.21,0,0,0,0,1.207V13.275a1.21,1.21,0,0,0,1.207,1.207H13.275a1.21,1.21,0,0,0,1.207-1.207V1.207A1.21,1.21,0,0,0,13.275,0ZM2.414,12.672H1.207V11.465H2.414Zm0-3.017H1.207V8.448H2.414Zm0-3.621H1.207V4.827H2.414Zm0-3.017H1.207V1.81H2.414Zm8.448,9.051H3.621V7.845h7.241Zm0-5.431H3.621V2.414h7.241Zm2.414,6.034H12.068V11.465h1.207Zm0-3.017H12.068V8.448h1.207Zm0-3.621H12.068V4.827h1.207Zm0-3.017H12.068V1.81h1.207Z" transform="translate(328 162.601)" fill="#bcbccb"/>
  </g>
</svg>
