<svg xmlns="http://www.w3.org/2000/svg" width="16" height="16" viewBox="0 0 16 16">
  <g id="icon_dashboard" transform="translate(-79 -91)">
    <path id="Union_8" data-name="Union 8" d="M-481-8a.945.945,0,0,1-1-1v-9a.945.945,0,0,1,1-1h2a.945.945,0,0,1,1,1v9a.945.945,0,0,1-1,1Zm-6,0a.944.944,0,0,1-1-1V-23a.945.945,0,0,1,1-1h2a.945.945,0,0,1,1,1V-9a.944.944,0,0,1-1,1Zm-6,0a.945.945,0,0,1-1-1v-4a.945.945,0,0,1,1-1h2a.946.946,0,0,1,1,1v4a.945.945,0,0,1-1,1Z" transform="translate(573 115)" fill="#a5a4bf"/>
  </g>
</svg>
