<svg xmlns="http://www.w3.org/2000/svg" width="14" height="16" viewBox="0 0 14 16">
  <g id="icon_lock-open" transform="translate(-186 -195)">
    <path id="icon_lock-open-2" data-name="icon_lock-open" d="M1,15a.945.945,0,0,0,1,1H14a.945.945,0,0,0,1-1V6a.945.945,0,0,0-1-1H6V4A2.006,2.006,0,0,1,8,2a1.8,1.8,0,0,1,1.5.7l.7.7,1.5-1.3L11,1.3A4.335,4.335,0,0,0,8,0,4.012,4.012,0,0,0,4,4V5H2A.945.945,0,0,0,1,6ZM8,8a2.006,2.006,0,0,1,2,2,1.936,1.936,0,0,1-1,1.7V13H7V11.7A1.936,1.936,0,0,1,6,10,2.006,2.006,0,0,1,8,8Z" transform="translate(185 195)" fill="#ff6565"/>
  </g>
</svg>
