<svg xmlns="http://www.w3.org/2000/svg" width="15.999" height="15.999" viewBox="0 0 15.999 15.999">
  <g id="icon_chat-notification" transform="translate(-78 -132)">
    <path id="Chat_Icon" data-name="Chat Icon" d="M-1234.693.89A7.944,7.944,0,0,1-1236,1,7.286,7.286,0,0,1-1239.8-.021c.1,0,.2.021.305.021,4.16,0,7.624-2.652,8.353-6.139A3.788,3.788,0,0,1-1230-3.5a3.739,3.739,0,0,1-1.012,2.5h.012V3ZM-1245-4.578a4.872,4.872,0,0,1-1-2.921c0-3.038,2.91-5.5,6.5-5.5s6.5,2.462,6.5,5.5-2.91,5.5-6.5,5.5a7.454,7.454,0,0,1-2.8-.542L-1245-1Z" transform="translate(1324 145)" fill="#bcbccb"/>
  </g>
</svg>
