<svg xmlns="http://www.w3.org/2000/svg" width="14" height="16" viewBox="0 0 14 16">
  <g id="icon_customers" transform="translate(-221 -91)">
    <path id="Union_10" data-name="Union 10" d="M-4-310a6.018,6.018,0,0,1,6-6H4a6.018,6.018,0,0,1,6,6Zm2.6-2H7.5A4.033,4.033,0,0,0,4-314H2.1A4.035,4.035,0,0,0-1.4-312Zm.4-9v-1a4.012,4.012,0,0,1,4-4,4.012,4.012,0,0,1,4,4v1a4.012,4.012,0,0,1-4,4A4.012,4.012,0,0,1-1-321Zm2-1v1a2.006,2.006,0,0,0,2,2,2.006,2.006,0,0,0,2-2v-1a2.006,2.006,0,0,0-2-2A2.006,2.006,0,0,0,1-322Z" transform="translate(225 417)" fill="#a5a4bf"/>
  </g>
</svg>
