<svg xmlns="http://www.w3.org/2000/svg" width="17.458" height="17.485" viewBox="0 0 17.458 17.485">
  <g id="icon_star" transform="translate(-41.672 -229.01)">
    <path id="Path_362" data-name="Path 362" d="M17.132,7.552a1.031,1.031,0,0,0-.508-1.743l-4.793-.726h0L9.8.654a1.062,1.062,0,0,0-1.961,0L5.658,5.083h0L.793,5.809A1.031,1.031,0,0,0,.285,7.552L3.77,11.183v.073l-.8,4.865a1.127,1.127,0,0,0,1.6,1.234l4.067-2.324h.073l4.067,2.251a1.127,1.127,0,0,0,1.6-1.234l-.8-4.865V11.11Z" transform="translate(41.693 229.01)" fill="#ff6565"/>
  </g>
</svg>
